<svg xmlns="http://www.w3.org/2000/svg" width="36" height="37" viewBox="0 0 36 37" fill="none">
  <path d="M32.0625 5.45557H3.93748C2.49924 5.45557 1.33331 6.56088 1.33331 7.92435V32.698C1.33331 34.0614 2.49924 35.1667 3.93748 35.1667H32.0625C33.5007 35.1667 34.6666 34.0614 34.6666 32.698V7.92435C34.6666 6.56088 33.5007 5.45557 32.0625 5.45557Z" stroke="#92A0B3" stroke-width="2" stroke-linecap="round" stroke-linejoin="round"/>
  <path d="M25.733 1.8335V8.4091" stroke="#92A0B3" stroke-width="2" stroke-linecap="round" stroke-linejoin="round"/>
  <path d="M10.2658 1.8335V8.4091" stroke="#92A0B3" stroke-width="2" stroke-linecap="round" stroke-linejoin="round"/>
  <path d="M7.31061 19.4082H9.29824" stroke="#92A0B3" stroke-width="2" stroke-linecap="round" stroke-linejoin="round"/>
  <path d="M13.7732 19.4082H15.7615" stroke="#92A0B3" stroke-width="2" stroke-linecap="round" stroke-linejoin="round"/>
  <path d="M20.237 19.4082H22.2253" stroke="#92A0B3" stroke-width="2" stroke-linecap="round" stroke-linejoin="round"/>
  <path d="M26.7007 19.4082H28.6884" stroke="#92A0B3" stroke-width="2" stroke-linecap="round" stroke-linejoin="round"/>
  <path d="M7.31061 24.8354H9.29824" stroke="#92A0B3" stroke-width="2" stroke-linecap="round" stroke-linejoin="round"/>
  <path d="M13.7732 24.8354H15.7615" stroke="#92A0B3" stroke-width="2" stroke-linecap="round" stroke-linejoin="round"/>
  <path d="M20.237 24.8354H22.2253" stroke="#92A0B3" stroke-width="2" stroke-linecap="round" stroke-linejoin="round"/>
  <path d="M26.7007 24.8354H28.6884" stroke="#92A0B3" stroke-width="2" stroke-linecap="round" stroke-linejoin="round"/>
  <path d="M7.31061 30.2671H9.29824" stroke="#92A0B3" stroke-width="2" stroke-linecap="round" stroke-linejoin="round"/>
  <path d="M13.7732 30.2671H15.7615" stroke="#92A0B3" stroke-width="2" stroke-linecap="round" stroke-linejoin="round"/>
  <path d="M20.237 30.2671H22.2253" stroke="#92A0B3" stroke-width="2" stroke-linecap="round" stroke-linejoin="round"/>
  <path d="M26.7007 30.2671H28.6884" stroke="#92A0B3" stroke-width="2" stroke-linecap="round" stroke-linejoin="round"/>
  <path d="M1.33331 12.0752H34.6666" stroke="#92A0B3" stroke-width="2" stroke-linecap="round" stroke-linejoin="round"/>
</svg>