<svg xmlns="http://www.w3.org/2000/svg" width="24" height="37" viewBox="0 0 24 37" fill="none">
  <path d="M7.59315 25.7674C11.2345 25.7674 14.1863 22.7752 14.1863 19.0841C14.1863 15.3931 11.2345 12.4009 7.59315 12.4009C3.95186 12.4009 1 15.3931 1 19.0841C1 22.7752 3.95186 25.7674 7.59315 25.7674Z" stroke="#92A0B3" stroke-width="2" stroke-linecap="round" stroke-linejoin="round"/>
  <path d="M7.5929 25.7676V35.167" stroke="#92A0B3" stroke-width="2" stroke-linecap="round" stroke-linejoin="round"/>
  <path d="M4.26776 30.6157H10.915" stroke="#92A0B3" stroke-width="2" stroke-linecap="round" stroke-linejoin="round"/>
  <path d="M11.4141 19.9256C15.0554 19.9256 18.0072 16.9334 18.0072 13.2423C18.0072 9.55127 15.0554 6.55908 11.4141 6.55908C7.77278 6.55908 4.82092 9.55127 4.82092 13.2423C4.82092 16.9334 7.77278 19.9256 11.4141 19.9256Z" stroke="#92A0B3" stroke-width="2" stroke-linecap="round" stroke-linejoin="round"/>
  <path d="M16.0751 8.51705L22.6321 1.87109" stroke="#92A0B3" stroke-width="2" stroke-linecap="round" stroke-linejoin="round"/>
  <path d="M22.6659 5.19271V1.8335H19.3519" stroke="#92A0B3" stroke-width="2" stroke-linecap="round" stroke-linejoin="round"/>
</svg>