<svg xmlns="http://www.w3.org/2000/svg" width="36" height="37" viewBox="0 0 36 37" fill="none">
  <path d="M18 35.1668C27.2047 35.1668 34.6666 27.7049 34.6666 18.5002C34.6666 9.29542 27.2047 1.8335 18 1.8335C8.79523 1.8335 1.33331 9.29542 1.33331 18.5002C1.33331 27.7049 8.79523 35.1668 18 35.1668Z" stroke="#92A0B3" stroke-width="2" stroke-linecap="round" stroke-linejoin="round"/>
  <path d="M1.33331 18.5H34.6666" stroke="#92A0B3" stroke-width="2" stroke-linecap="round" stroke-linejoin="round"/>
  <path d="M18.0002 35.1668C23.114 35.1668 27.2596 27.7049 27.2596 18.5002C27.2596 9.29542 23.114 1.8335 18.0002 1.8335C12.8864 1.8335 8.74078 9.29542 8.74078 18.5002C8.74078 27.7049 12.8864 35.1668 18.0002 35.1668Z" stroke="#92A0B3" stroke-width="2" stroke-linecap="round" stroke-linejoin="round"/>
  <path d="M5.71405 7.59717C8.76279 9.74587 13.138 11.0925 17.9993 11.0925C22.8606 11.0925 27.2358 9.74587 30.2852 7.59717" stroke="#92A0B3" stroke-width="2" stroke-linecap="round" stroke-linejoin="round"/>
  <path d="M30.2859 29.4015C27.2393 27.2486 22.8606 25.9048 17.9993 25.9048C13.138 25.9048 8.76279 27.2486 5.71405 29.4015" stroke="#92A0B3" stroke-width="2" stroke-linecap="round" stroke-linejoin="round"/>
</svg>