<svg xmlns="http://www.w3.org/2000/svg" width="26" height="37" viewBox="0 0 26 37" fill="none">
<path d="M1.33331 8.26418C1.33331 7.37479 1.95865 6.59283 2.86665 6.34867L19.3173 1.91148C20.6673 1.54752 22.0106 2.50332 22.0106 3.82699V6.36625" stroke="#92A0B3" stroke-width="2" stroke-linecap="round" stroke-linejoin="round"/>
<path d="M22.6666 6.76172H3.33331C2.22874 6.76172 1.33331 7.63623 1.33331 8.71499V33.2136C1.33331 34.2924 2.22874 35.1669 3.33331 35.1669H22.6666C23.7712 35.1669 24.6666 34.2924 24.6666 33.2136V8.71499C24.6666 7.63623 23.7712 6.76172 22.6666 6.76172Z" stroke="#92A0B3" stroke-width="2" stroke-linecap="round" stroke-linejoin="round"/>
<path d="M13 26.4371C17.5125 26.4371 21.1707 22.8644 21.1707 18.4573C21.1707 14.0502 17.5125 10.4775 13 10.4775C8.48748 10.4775 4.82935 14.0502 4.82935 18.4573C4.82935 22.8644 8.48748 26.4371 13 26.4371Z" stroke="#92A0B3" stroke-width="2" stroke-linecap="round" stroke-linejoin="round"/>
<path d="M4.82935 18.457H21.1707" stroke="#92A0B3" stroke-width="2" stroke-linecap="round" stroke-linejoin="round"/>
<path d="M12.9998 26.4371C15.5068 26.4371 17.5392 22.8644 17.5392 18.4573C17.5392 14.0502 15.5068 10.4775 12.9998 10.4775C10.4928 10.4775 8.46051 14.0502 8.46051 18.4573C8.46051 22.8644 10.4928 26.4371 12.9998 26.4371Z" stroke="#92A0B3" stroke-width="2" stroke-linecap="round" stroke-linejoin="round"/>
<path d="M6.97736 13.2344C8.47069 14.2631 10.616 14.9077 13 14.9077C15.384 14.9077 17.5294 14.2631 19.0227 13.2344" stroke="#92A0B3" stroke-width="2" stroke-linecap="round" stroke-linejoin="round"/>
<path d="M19.0227 23.6753C17.5294 22.6465 15.384 22.002 13 22.002C10.616 22.002 8.47069 22.6465 6.97736 23.6753" stroke="#92A0B3" stroke-width="2" stroke-linecap="round" stroke-linejoin="round"/>
<path d="M4.69531 29.5732H21.3046" stroke="#92A0B3" stroke-linecap="round" stroke-linejoin="round"/>
<path d="M8.46051 32.3457H17.5392" stroke="#92A0B3" stroke-linecap="round" stroke-linejoin="round"/>
</svg>