<svg xmlns="http://www.w3.org/2000/svg" width="26" height="37" viewBox="0 0 26 37" fill="none">
<path d="M13 13.9177L21.1439 5.55192L18.033 1.8335H7.96641L4.85608 5.55192L13 13.9177Z" stroke="#92A0B3" stroke-width="2" stroke-linecap="round" stroke-linejoin="round"/>
<path d="M4.85608 5.55127H21.1439" stroke="#92A0B3" stroke-width="2" stroke-linecap="round" stroke-linejoin="round"/>
<path d="M7.96643 1.8335L10.4663 5.55192" stroke="#92A0B3" stroke-width="2" stroke-linecap="round" stroke-linejoin="round"/>
<path d="M17.9665 1.8335L15.4666 5.55192" stroke="#92A0B3" stroke-width="2" stroke-linecap="round" stroke-linejoin="round"/>
<path d="M12.9667 1.8335L15.4666 5.55192L12.9999 13.9177L10.4669 5.55192L12.9667 1.8335Z" stroke="#92A0B3" stroke-width="2" stroke-linecap="round" stroke-linejoin="round"/>
<path d="M13 35.1668C19.4433 35.1668 24.6666 29.9587 24.6666 23.5341C24.6666 17.1095 19.4433 11.9014 13 11.9014C6.55666 11.9014 1.33331 17.1095 1.33331 23.5341C1.33331 29.9587 6.55666 35.1668 13 35.1668Z" stroke="#92A0B3" stroke-width="2" stroke-linecap="round" stroke-linejoin="round"/>
<path d="M12.9998 32.2583C17.8322 32.2583 21.7497 28.3523 21.7497 23.534C21.7497 18.7156 17.8322 14.8096 12.9998 14.8096C8.16744 14.8096 4.25 18.7156 4.25 23.534C4.25 28.3523 8.16744 32.2583 12.9998 32.2583Z" stroke="#92A0B3" stroke-width="2" stroke-linecap="round" stroke-linejoin="round"/>
</svg>