<svg width="191" height="73" viewBox="0 0 191 73" fill="none" xmlns="http://www.w3.org/2000/svg">
<path d="M29.6115 13.7327V69.9921C12.022 62.5652 0.594713 45.2436 0.618323 26.0713V23.4612L29.6115 13.7327Z" fill="#1FABE6"/>
<path d="M70.9764 23.485V26.095C71 45.2674 59.5491 62.5651 41.9596 70.0158V13.7327L70.9764 23.485Z" fill="#29C3F1"/>
<path d="M35.7974 0.539856L29.6351 2.6042L4.23069 11.1463C2.08217 11.8819 0.618347 13.8988 0.618347 16.1767V23.4612L29.6351 13.709V69.9683C30.7448 70.4429 31.8545 70.87 33.0114 71.2496L35.7974 72.1988H35.821L35.7974 0.539856Z" fill="#009FE3"/>
<path d="M67.3641 11.1463L41.9596 2.6042L35.821 0.539856V72.1988L38.607 71.2734C39.7639 70.8937 40.8735 70.4666 41.9832 69.9921V13.7327L71 23.4849V16.1767C70.9764 13.8988 69.5126 11.8819 67.3641 11.1463Z" fill="#0BBBEF"/>
<path d="M99.004 22.4287C99.4697 22.4287 99.8507 22.2593 100.168 21.9418C100.486 21.6243 100.655 21.2221 100.655 20.7776C100.655 20.333 100.486 19.9308 100.168 19.6133C99.8507 19.2958 99.4485 19.1264 99.004 19.1264C98.5594 19.1264 98.1784 19.2958 97.8609 19.6133C97.5434 19.9308 97.374 20.333 97.374 20.7776C97.374 21.2221 97.5434 21.6243 97.8609 21.9418C98.1996 22.2593 98.5806 22.4287 99.004 22.4287Z" fill="white"/>
<path d="M124.575 32.9705C124.11 32.9705 123.729 33.1398 123.411 33.4574C123.094 33.7749 122.924 34.1771 122.924 34.6216C122.924 35.0873 123.094 35.4683 123.411 35.7859C123.729 36.1034 124.131 36.2727 124.575 36.2727C125.02 36.2727 125.422 36.1034 125.74 35.7859C126.057 35.4683 126.226 35.0661 126.226 34.6216C126.226 34.1559 126.057 33.7749 125.74 33.4574C125.422 33.1187 125.02 32.9705 124.575 32.9705Z" fill="white"/>
<path d="M129.592 35.7859C129.91 35.4683 130.079 35.0661 130.079 34.6216C130.079 34.1559 129.91 33.7749 129.592 33.4574C129.275 33.1398 128.872 32.9705 128.428 32.9705C127.983 32.9705 127.602 33.1398 127.285 33.4574C126.967 33.7749 126.798 34.1771 126.798 34.6216C126.798 35.0873 126.967 35.4683 127.285 35.7859C127.602 36.1034 127.983 36.2727 128.428 36.2727C128.894 36.2727 129.275 36.1034 129.592 35.7859Z" fill="white"/>
<path d="M168.457 31.8697C170.045 31.8697 171.336 31.2558 172.352 30.0069C173.389 28.7368 173.897 27.128 173.897 25.2017C173.897 23.1484 173.241 21.5608 171.95 20.46C170.913 19.5709 169.664 19.1476 168.161 19.1476C166.637 19.1476 165.43 19.4863 164.562 20.1637C163.44 20.9892 162.89 22.217 162.89 23.8258V27.8901C162.89 28.0594 162.826 28.2076 162.721 28.3135C162.594 28.4405 162.424 28.5251 162.234 28.5251H158.529H158.318H153.999H153.83H149.49H149.321H144.982H144.812H140.473H140.24H135.9H135.731H131.392H131.222H130.079V28.1441V19.4228H127.01V27.8054C127.01 28.0171 126.925 28.1864 126.777 28.3135C126.671 28.4405 126.502 28.5251 126.269 28.5251H122.607H122.437H118.098H117.928H113.568H113.398H108.911H108.868H107.641V19.4228H104.55V30.2186C104.55 31.8697 104.106 33.0128 103.238 33.6902C102.454 34.2829 101.121 34.5793 99.1945 34.5793C97.2047 34.5793 95.8288 34.2617 95.0244 33.6055C94.22 32.9493 93.8178 31.8274 93.8178 30.2186V24.6725H92.2725L90.7061 25.9426V30.4938C90.7061 32.653 91.3834 34.3041 92.7382 35.4895C94.0295 36.6114 95.7441 37.1618 97.9244 37.1618H100.443C102.433 37.1618 104.084 36.6538 105.376 35.6589C106.752 34.6004 107.493 33.0763 107.641 31.0865H108.89H108.911H113.377H113.547H117.886H118.055H122.395H122.564H127.327C128.195 31.0865 128.915 30.7478 129.486 30.0493H129.529L130.46 31.0865H131.18H131.349H135.689H135.858H140.24H140.409H144.749H144.918H149.258H149.427H153.766H153.936H158.254H158.466H163.123C163.906 31.0865 164.562 30.8113 165.113 30.2821C165.938 31.3405 167.06 31.8697 168.457 31.8697ZM165.938 23.8258C165.938 23.1907 166.15 22.6827 166.552 22.3017C166.912 21.9206 167.399 21.7089 167.992 21.7089C168.796 21.7089 169.473 22.0053 169.981 22.598C170.532 23.2966 170.828 24.2491 170.828 25.4769C170.828 26.5988 170.574 27.5091 170.066 28.2076C169.558 28.9062 168.902 29.266 168.119 29.266C167.314 29.266 166.594 28.9273 165.959 28.25V23.8258H165.938Z" fill="white"/>
<path d="M181.01 31.1077H181.222H185.921C186.747 31.1077 187.445 30.7902 187.996 30.1339C188.44 29.5836 188.652 28.9697 188.652 28.3135V19.4228H185.582V27.8901C185.582 28.0594 185.519 28.2076 185.413 28.3135C185.286 28.4405 185.117 28.5251 184.926 28.5251H181.222H181.01H180.544C180.333 28.5251 180.163 28.4405 180.057 28.2923C179.952 28.1864 179.909 28.0594 179.909 27.8901V12.9241H176.819V28.3135C176.819 29.1179 177.115 29.8164 177.729 30.3668C178.258 30.8537 178.872 31.1077 179.549 31.1077H181.01Z" fill="white"/>
<path d="M180.883 10.2781V9.64302H179.19C178.787 9.64302 178.47 9.49484 178.279 9.21966C178.11 9.02914 178.025 8.77513 178.025 8.43643C178.025 7.63204 178.385 7.20867 179.126 7.20867C179.338 7.20867 179.676 7.25101 180.1 7.35685V6.00208C179.634 5.8539 179.147 5.76923 178.682 5.76923C178.025 5.76923 177.475 6.00208 177.052 6.44661C176.628 6.89115 176.416 7.46269 176.416 8.16124C176.416 8.71162 176.565 9.19849 176.84 9.64302H175.803V10.9978H180.29L180.883 10.2781Z" fill="white"/>
<path d="M187.339 17.1154C187.805 17.1154 188.186 16.9461 188.504 16.6286C188.821 16.311 188.99 15.93 188.99 15.4855C188.99 15.0198 188.821 14.6387 188.504 14.3212C188.186 14.0037 187.784 13.8344 187.339 13.8344C186.895 13.8344 186.514 14.0037 186.196 14.3212C185.879 14.6387 185.709 15.0409 185.709 15.4855C185.709 15.93 185.879 16.311 186.196 16.6286C186.514 16.9461 186.895 17.1154 187.339 17.1154Z" fill="white"/>
<path d="M183.466 17.1154C183.931 17.1154 184.312 16.9461 184.63 16.6286C184.947 16.311 185.117 15.93 185.117 15.4855C185.117 15.0198 184.947 14.6387 184.63 14.3212C184.312 14.0037 183.91 13.8344 183.466 13.8344C183.021 13.8344 182.619 14.0037 182.301 14.3212C181.984 14.6387 181.814 15.0409 181.814 15.4855C181.814 15.93 181.984 16.311 182.301 16.6286C182.619 16.9461 183.021 17.1154 183.466 17.1154Z" fill="white"/>
<path d="M91.5739 49.0161H97.0988V64.0879H100.846V49.0161H106.117V45.9043H91.5739V49.0161Z" fill="white"/>
<path d="M118.754 62.0134V54.4987C118.754 53.1227 118.352 52.1066 117.569 51.4292C116.679 50.7095 115.24 50.3708 113.25 50.3708C109.63 50.3708 107.704 51.9161 107.514 55.0279H110.858C110.943 54.3293 111.155 53.8636 111.514 53.5884C111.853 53.3344 112.467 53.1862 113.335 53.1862C114.669 53.1862 115.346 53.6308 115.367 54.541L115.388 55.5147L112.636 56.0228C110.922 56.3191 109.779 56.6367 109.207 56.933C107.852 57.6527 107.175 58.8382 107.175 60.5316C107.175 61.6747 107.492 62.5638 108.149 63.1988C108.953 64.0032 109.99 64.3843 111.303 64.3843C113.081 64.3843 114.436 63.8339 115.367 62.7331C115.388 63.3258 115.515 63.7915 115.769 64.1091H119.58V63.22C119.029 63.0083 118.754 62.6061 118.754 62.0134ZM115.346 58.5841C115.304 60.574 114.372 61.5477 112.552 61.5477C111.303 61.5477 110.668 61.0608 110.668 60.1083C110.668 59.6425 110.837 59.2403 111.176 58.9228C111.536 58.6053 112.065 58.3513 112.806 58.1819L115.367 57.5892L115.346 58.5841Z" fill="white"/>
<path d="M122.099 51.6833H123.369L124.702 50.6249V45.9043H122.099V51.6833Z" fill="white"/>
<path d="M142.78 50.3497C141.171 50.3497 139.859 51.0059 138.843 52.3395C138.144 51.027 136.938 50.3497 135.181 50.3497C133.762 50.3497 132.535 50.9847 131.497 52.2548V50.6249H128.026V64.0879H131.54V55.9593C131.54 55.1337 131.751 54.4775 132.175 54.0118C132.598 53.5461 133.191 53.3132 133.932 53.3132C135.181 53.3132 135.816 53.9059 135.816 55.0702V64.0879H139.33V55.9593C139.33 55.1337 139.541 54.4775 139.965 54.0118C140.388 53.5461 140.981 53.3132 141.722 53.3132C142.992 53.3132 143.627 53.9059 143.627 55.0702V64.0879H147.098V54.5198C147.098 53.2074 146.717 52.1913 145.976 51.4504C145.193 50.7095 144.135 50.3497 142.78 50.3497Z" fill="white"/>
<path d="M159.291 51.3657C158.254 50.6884 157.047 50.3497 155.693 50.3497C153.893 50.3497 152.454 50.9 151.353 52.022C150.104 53.3344 149.469 55.176 149.469 57.5681C149.469 59.5367 149.956 61.1243 150.909 62.3097C152.009 63.6857 153.576 64.3631 155.629 64.3631C157.132 64.3631 158.445 63.982 159.588 63.1988C160.71 62.4368 161.472 61.3783 161.853 60.0659H158.402C157.958 61.1455 157.09 61.6959 155.777 61.6959C154.719 61.6959 153.957 61.3148 153.47 60.574C153.174 60.1083 153.004 59.3462 152.962 58.2666H162.001C162.022 58.0126 162.022 57.8009 162.022 57.6316C162.022 56.298 161.853 55.1549 161.493 54.2023C161.069 52.9957 160.329 52.0431 159.291 51.3657ZM153.026 55.9593C153.237 53.9906 154.126 53.0169 155.672 53.0169C157.323 53.0169 158.212 53.9906 158.381 55.9593H153.026Z" fill="white"/>
<path d="M173.495 51.3657C172.458 50.6884 171.251 50.3497 169.897 50.3497C168.097 50.3497 166.658 50.9 165.557 52.022C164.308 53.3344 163.673 55.176 163.673 57.5681C163.673 59.5367 164.16 61.1243 165.113 62.3097C166.213 63.6857 167.78 64.3631 169.833 64.3631C171.336 64.3631 172.649 63.982 173.792 63.1988C174.914 62.4368 175.676 61.3783 176.057 60.0659H172.606C172.162 61.1455 171.294 61.6959 169.981 61.6959C168.923 61.6959 168.161 61.3148 167.674 60.574C167.378 60.1083 167.208 59.3462 167.166 58.2666H176.205C176.226 58.0126 176.226 57.8009 176.226 57.6316C176.226 56.298 176.057 55.1549 175.697 54.2023C175.252 52.9957 174.532 52.0431 173.495 51.3657ZM167.208 55.9593C167.42 53.9906 168.309 53.0169 169.854 53.0169C171.505 53.0169 172.394 53.9906 172.564 55.9593H167.208Z" fill="white"/>
<path d="M189.71 51.7256C188.906 50.8154 187.742 50.3497 186.196 50.3497C184.46 50.3497 183.127 51.0694 182.174 52.53V50.6249H178.66V64.0879H182.174V55.9593C182.174 55.1549 182.428 54.5198 182.936 54.0329C183.444 53.5461 184.122 53.3132 184.968 53.3132C186.471 53.3132 187.234 54.1176 187.234 55.7264V64.0879H190.705V55.0279C190.726 53.6307 190.388 52.53 189.71 51.7256Z" fill="white"/>
</svg>
