<svg width="71" height="71" viewBox="0 0 71 71" fill="none" xmlns="http://www.w3.org/2000/svg">
<path d="M29.4928 13.052V68.7465C12.093 61.4312 0.638428 44.3861 0.638428 25.2745V22.6973L29.4928 13.052Z" fill="#D0D5DD"/>
<path d="M70.2438 22.6453V25.2225C70.2438 44.334 58.786 61.3792 41.3894 68.6945V13L70.2438 22.6453Z" fill="#D0D5DD"/>
<path d="M35.6301 0L29.4928 2.05336L4.23099 10.4978C2.08652 11.2137 0.638428 13.2248 0.638428 15.4864V22.6976L29.4928 13.0491V68.7436C30.5895 69.2057 31.7089 69.6287 32.8511 70.0094L35.6301 70.9401L35.6497 70.9336V11.0055V0.00650827L35.6301 0Z" fill="white"/>
<path d="M66.7723 10.4913L41.5072 2.04685L35.3894 0V10.999V70.9271L38.1489 70.0029C39.2911 69.6222 40.4105 69.1991 41.5072 68.7371V13.0458L70.3616 22.6943V15.4799C70.3648 13.2183 68.9167 11.2072 66.7723 10.4913Z" fill="white"/>
</svg>
