<svg width="100" height="131" viewBox="0 0 100 131" fill="none" xmlns="http://www.w3.org/2000/svg">
<path d="M46.1681 11.198V61.9596C30.5035 55.3762 18.4799 40.0081 18.4799 22.7771V20.4485L46.1681 11.198Z" fill="#312783"/>
<path d="M81.5614 19.8135V22.1421C81.5614 39.3731 70.4904 55.3763 53.6616 61.9808V11.1134L81.5614 19.8135Z" fill="#5B549F"/>
<path d="M50.0207 0L44.4958 1.84164L21.7187 9.46223C19.7924 10.1184 18.4799 11.9178 18.4799 13.9499V20.4486L44.4958 11.7484L50.0207 9.90676H50.0419L50.0207 0Z" fill="#009FE3"/>
<path d="M55.5456 1.84164L50.0419 0V9.90676L55.5668 11.7484L81.5826 20.4486V13.9499C81.5826 11.9178 80.2702 10.0973 78.3439 9.46223L55.5456 1.84164Z" fill="#0BBBEF"/>
<path d="M50.0207 0L46.1681 1.84164V61.9596C46.8454 62.383 47.5652 62.764 48.2637 63.1027L49.9995 63.9494H50.0207V0Z" fill="#009FE3"/>
<path d="M50.0419 0V63.9283L51.6718 63.1027C52.3492 62.764 53.0054 62.383 53.6617 61.9596V1.84164L50.0419 0Z" fill="#0BBBEF"/>
<path d="M8.29796 88.4412C8.76366 88.4412 9.14469 88.2718 9.46222 87.9543C9.77974 87.6368 9.94909 87.2346 9.94909 86.79C9.94909 86.3455 9.77974 85.9433 9.46222 85.6258C9.14469 85.3082 8.74249 85.1389 8.29796 85.1389C7.85342 85.1389 7.47239 85.3082 7.15487 85.6258C6.83735 85.9433 6.668 86.3455 6.668 86.79C6.668 87.2346 6.83735 87.6368 7.15487 87.9543C7.49356 88.2718 7.87459 88.4412 8.29796 88.4412Z" fill="#312783"/>
<path d="M33.8693 98.983C33.4036 98.983 33.0225 99.1523 32.705 99.4698C32.3875 99.7873 32.2181 100.19 32.2181 100.634C32.2181 101.1 32.3875 101.481 32.705 101.798C33.0225 102.116 33.4247 102.285 33.8693 102.285C34.3138 102.285 34.716 102.116 35.0335 101.798C35.351 101.481 35.5204 101.079 35.5204 100.634C35.5204 100.168 35.351 99.7873 35.0335 99.4698C34.716 99.1311 34.3138 98.983 33.8693 98.983Z" fill="#312783"/>
<path d="M38.8862 101.798C39.2037 101.481 39.373 101.079 39.373 100.634C39.373 100.168 39.2037 99.7873 38.8862 99.4698C38.5686 99.1523 38.1664 98.983 37.7219 98.983C37.2774 98.983 36.8963 99.1523 36.5788 99.4698C36.2613 99.7873 36.0919 100.19 36.0919 100.634C36.0919 101.1 36.2613 101.481 36.5788 101.798C36.8963 102.116 37.2774 102.285 37.7219 102.285C38.1876 102.285 38.5686 102.116 38.8862 101.798Z" fill="#312783"/>
<path d="M77.7512 97.8822C79.3388 97.8822 80.6301 97.2683 81.6461 96.0194C82.6834 94.7493 83.1914 93.1405 83.1914 91.2142C83.1914 89.1609 82.5352 87.5732 81.2439 86.4725C80.2067 85.5834 78.9578 85.1601 77.4548 85.1601C75.9307 85.1601 74.7241 85.4988 73.8562 86.1761C72.7343 87.0017 72.1839 88.2295 72.1839 89.8383V93.9026C72.1839 94.0719 72.1204 94.2201 72.0146 94.3259C71.8876 94.4529 71.7182 94.5376 71.5277 94.5376H67.8232H67.6115H63.2932H63.1239H58.7844H58.615H54.2755H54.1062H49.7667H49.5338H45.1943H45.025H40.6855H40.5161H39.373V94.1566V85.4353H36.3036V93.8179C36.3036 94.0296 36.219 94.1989 36.0708 94.3259C35.9649 94.4529 35.7956 94.5376 35.5627 94.5376H31.9006H31.7313H27.3918H27.2224H22.8618H22.6924H18.2047H18.1624H16.9346V85.4353H13.8441V96.2311C13.8441 97.8822 13.3995 99.0253 12.5316 99.7027C11.7484 100.295 10.4148 100.592 8.48849 100.592C6.49867 100.592 5.12273 100.274 4.31833 99.618C3.51394 98.9618 3.11174 97.8399 3.11174 96.2311V90.685H1.56645L0 91.9551V96.5063C0 98.6654 0.677386 100.317 2.03216 101.502C3.32342 102.624 5.03805 103.174 7.21839 103.174H9.73742C11.7272 103.174 13.3784 102.666 14.6696 101.671C16.0456 100.613 16.7865 99.0888 16.9346 97.099H18.1836H18.2047H22.6712H22.8406H27.1801H27.3494H31.6889H31.8583H36.6212C37.4891 97.099 38.2088 96.7603 38.7803 96.0617H38.8227L39.7541 97.099H40.4738H40.6431H44.9826H45.152H49.5338H49.7032H54.0427H54.212H58.5515H58.7209H63.0604H63.2297H67.548H67.7597H72.4168C73.2 97.099 73.8562 96.8238 74.4066 96.2946C75.2321 97.353 76.3541 97.8822 77.7512 97.8822ZM75.2321 89.8383C75.2321 89.2032 75.4438 88.6952 75.846 88.3141C76.2059 87.9331 76.6928 87.7214 77.2855 87.7214C78.0899 87.7214 78.7672 88.0178 79.2753 88.6105C79.8257 89.309 80.122 90.2616 80.122 91.4894C80.122 92.6113 79.868 93.5215 79.36 94.2201C78.8519 94.9186 78.1957 95.2785 77.4125 95.2785C76.6081 95.2785 75.8884 94.9398 75.2533 94.2624V89.8383H75.2321Z" fill="#312783"/>
<path d="M90.304 97.1201H90.5157H95.215C96.0406 97.1201 96.7391 96.8026 97.2895 96.1464C97.734 95.596 97.9457 94.9821 97.9457 94.3259V85.4352H94.8763V93.9026C94.8763 94.0719 94.8128 94.2201 94.707 94.3259C94.58 94.4529 94.4106 94.5376 94.2201 94.5376H90.5157H90.304H89.8383C89.6266 94.5376 89.4572 94.4529 89.3514 94.3048C89.2456 94.1989 89.2032 94.0719 89.2032 93.9026V78.9366H86.1126V94.3259C86.1126 95.1303 86.409 95.8289 87.0229 96.3793C87.5521 96.8661 88.166 97.1201 88.8434 97.1201H90.304Z" fill="#312783"/>
<path d="M90.1769 76.2905V75.6555H88.4835C88.0813 75.6555 87.7638 75.5073 87.5733 75.2321C87.4039 75.0416 87.3192 74.7876 87.3192 74.4489C87.3192 73.6445 87.6791 73.2211 88.42 73.2211C88.6317 73.2211 88.9704 73.2635 89.3937 73.3693V72.0145C88.928 71.8664 88.4412 71.7817 87.9754 71.7817C87.3192 71.7817 86.7689 72.0145 86.3455 72.4591C85.9221 72.9036 85.7104 73.4752 85.7104 74.1737C85.7104 74.7241 85.8586 75.211 86.1338 75.6555H85.0966V77.0103H89.5842L90.1769 76.2905Z" fill="#312783"/>
<path d="M96.6333 83.1279C97.099 83.1279 97.48 82.9586 97.7975 82.641C98.1151 82.3235 98.2844 81.9425 98.2844 81.4979C98.2844 81.0322 98.1151 80.6512 97.7975 80.3337C97.48 80.0162 97.0778 79.8468 96.6333 79.8468C96.1888 79.8468 95.8077 80.0162 95.4902 80.3337C95.1727 80.6512 95.0033 81.0534 95.0033 81.4979C95.0033 81.9425 95.1727 82.3235 95.4902 82.641C95.8077 82.9586 96.1888 83.1279 96.6333 83.1279Z" fill="#312783"/>
<path d="M92.7595 83.1279C93.2252 83.1279 93.6062 82.9586 93.9238 82.641C94.2413 82.3235 94.4106 81.9425 94.4106 81.4979C94.4106 81.0322 94.2413 80.6512 93.9238 80.3337C93.6062 80.0162 93.204 79.8468 92.7595 79.8468C92.315 79.8468 91.9128 80.0162 91.5952 80.3337C91.2777 80.6512 91.1084 81.0534 91.1084 81.4979C91.1084 81.9425 91.2777 82.3235 91.5952 82.641C91.9128 82.9586 92.315 83.1279 92.7595 83.1279Z" fill="#312783"/>
<path d="M0.867859 115.029H6.39279V130.1H10.1396V115.029H15.4105V111.917H0.867859V115.029Z" fill="#312783"/>
<path d="M28.048 128.026V120.511C28.048 119.135 27.6458 118.119 26.8625 117.442C25.9735 116.722 24.534 116.383 22.5442 116.383C18.9244 116.383 16.9981 117.929 16.8076 121.04H20.1522C20.2369 120.342 20.4485 119.876 20.8084 119.601C21.1471 119.347 21.761 119.199 22.6289 119.199C23.9625 119.199 24.6399 119.643 24.661 120.553L24.6822 121.527L21.9303 122.035C20.2157 122.332 19.0726 122.649 18.5011 122.945C17.1463 123.665 16.4689 124.851 16.4689 126.544C16.4689 127.687 16.7864 128.576 17.4426 129.211C18.247 130.016 19.2843 130.397 20.5967 130.397C22.3749 130.397 23.7296 129.846 24.661 128.746C24.6822 129.338 24.8092 129.804 25.0632 130.122H28.8735V129.232C28.3232 129.021 28.048 128.619 28.048 128.026ZM24.6399 124.597C24.5975 126.586 23.6661 127.56 21.8457 127.56C20.5967 127.56 19.9617 127.073 19.9617 126.121C19.9617 125.655 20.131 125.253 20.4697 124.935C20.8296 124.618 21.3588 124.364 22.0997 124.194L24.661 123.602L24.6399 124.597Z" fill="#312783"/>
<path d="M31.3926 117.696H32.6627L33.9963 116.637V111.917H31.3926V117.696Z" fill="#312783"/>
<path d="M52.074 116.362C50.4652 116.362 49.1528 117.018 48.1367 118.352C47.4382 117.04 46.2316 116.362 44.4746 116.362C43.0563 116.362 41.8286 116.997 40.7913 118.267V116.637H37.3197V130.1H40.8337V121.972C40.8337 121.146 41.0454 120.49 41.4687 120.024C41.8921 119.559 42.4848 119.326 43.2257 119.326C44.4746 119.326 45.1097 119.918 45.1097 121.083V130.1H48.6236V121.972C48.6236 121.146 48.8353 120.49 49.2587 120.024C49.682 119.559 50.2747 119.326 51.0156 119.326C52.2857 119.326 52.9208 119.918 52.9208 121.083V130.1H56.3924V120.532C56.3924 119.22 56.0113 118.204 55.2705 117.463C54.4872 116.722 53.4288 116.362 52.074 116.362Z" fill="#312783"/>
<path d="M68.5853 117.378C67.5481 116.701 66.3415 116.362 64.9867 116.362C63.1874 116.362 61.7479 116.913 60.6472 118.034C59.3983 119.347 58.7632 121.189 58.7632 123.581C58.7632 125.549 59.2501 127.137 60.2027 128.322C61.3034 129.698 62.8699 130.376 64.9232 130.376C66.4261 130.376 67.7386 129.995 68.8817 129.211C70.0036 128.449 70.7656 127.391 71.1467 126.078H67.6962C67.2517 127.158 66.3838 127.708 65.0714 127.708C64.013 127.708 63.2509 127.327 62.764 126.586C62.4677 126.121 62.2983 125.359 62.256 124.279H71.2948C71.316 124.025 71.316 123.813 71.316 123.644C71.316 122.31 71.1467 121.167 70.7868 120.215C70.3634 119.008 69.6226 118.056 68.5853 117.378ZM62.3195 121.972C62.5312 120.003 63.4202 119.029 64.9655 119.029C66.6167 119.029 67.5057 120.003 67.6751 121.972H62.3195Z" fill="#312783"/>
<path d="M82.7892 117.378C81.752 116.701 80.5454 116.362 79.1906 116.362C77.3913 116.362 75.9519 116.913 74.8511 118.034C73.6022 119.347 72.9671 121.189 72.9671 123.581C72.9671 125.549 73.454 127.137 74.4066 128.322C75.5073 129.698 77.0738 130.376 79.1271 130.376C80.6301 130.376 81.9425 129.995 83.0856 129.211C84.2075 128.449 84.9696 127.391 85.3506 126.078H81.9002C81.4556 127.158 80.5877 127.708 79.2753 127.708C78.2169 127.708 77.4548 127.327 76.9679 126.586C76.6716 126.121 76.5022 125.359 76.4599 124.279H85.4988C85.5199 124.025 85.5199 123.813 85.5199 123.644C85.5199 122.31 85.3506 121.167 84.9907 120.215C84.5462 119.008 83.8265 118.056 82.7892 117.378ZM76.5022 121.972C76.7139 120.003 77.603 119.029 79.1483 119.029C80.7994 119.029 81.6885 120.003 81.8578 121.972H76.5022Z" fill="#312783"/>
<path d="M99.0042 117.738C98.1998 116.828 97.0355 116.362 95.4902 116.362C93.7544 116.362 92.4208 117.082 91.4683 118.542V116.637H87.9543V130.1H91.4683V121.972C91.4683 121.167 91.7223 120.532 92.2303 120.045C92.7384 119.559 93.4157 119.326 94.2625 119.326C95.7654 119.326 96.5275 120.13 96.5275 121.739V130.1H99.9991V121.04C100.02 119.643 99.6816 118.542 99.0042 117.738Z" fill="#312783"/>
</svg>
